inDegrees=no
num_controls=7
num_derivatives=13
num_iterations=106
num_multipliers=7
num_parameters=0
num_slacks=7
num_states=26
objective=0.334215
objective_accelerations=0.036111
objective_balance=0.001222
objective_effort=0.027117
objective_height=0.268117
objective_ligament=0.001648
solver_duration=1107.122465
status=Solve_Succeeded
success=true
DataType=double
version=3
OpenSimVersion=4.5
endheader
time	/jointset/ground_pelvis/pelvis_tilt/value	/jointset/ground_pelvis/pelvis_tx/value	/jointset/ground_pelvis/pelvis_ty/value	/jointset/hip_r/hip_flexion_r/value	/jointset/hip_r/hip_adduction_r/value	/jointset/hip_r/hip_rotation_r/value	/jointset/back/lumbar_extension/value	/jointset/patellofemoral_r/patellar_flexion_r/value	/jointset/knee_r/knee_flexion_r/value	/jointset/knee_r/knee_adduction_r/value	/jointset/knee_r/knee_rotation_r/value	/jointset/ankle_r/ankle_angle_r/value	/jointset/subtalar_r/subtalar_angle_r/value	/jointset/ground_pelvis/pelvis_tilt/speed	/jointset/ground_pelvis/pelvis_tx/speed	/jointset/ground_pelvis/pelvis_ty/speed	/jointset/hip_r/hip_flexion_r/speed	/jointset/hip_r/hip_adduction_r/speed	/jointset/hip_r/hip_rotation_r/speed	/jointset/back/lumbar_extension/speed	/jointset/patellofemoral_r/patellar_flexion_r/speed	/jointset/knee_r/knee_flexion_r/speed	/jointset/knee_r/knee_adduction_r/speed	/jointset/knee_r/knee_rotation_r/speed	/jointset/ankle_r/ankle_angle_r/speed	/jointset/subtalar_r/subtalar_angle_r/speed	/forceset/tau_hip_flexion_r	/forceset/tau_hip_adduction_r	/forceset/tau_hip_rotation_r	/forceset/tau_knee_flexion_r	/forceset/tau_ankle_angle_r	/forceset/tau_subtalar_angle_r	/forceset/tau_lumbar_extension	lambda_cid13_p0	lambda_cid14_p0	lambda_cid14_p1	lambda_cid14_p2	lambda_cid14_p3	lambda_cid14_p4	lambda_cid14_p5	/jointset/ground_pelvis/pelvis_tilt/accel	/jointset/ground_pelvis/pelvis_tx/accel	/jointset/ground_pelvis/pelvis_ty/accel	/jointset/hip_r/hip_flexion_r/accel	/jointset/hip_r/hip_adduction_r/accel	/jointset/hip_r/hip_rotation_r/accel	/jointset/back/lumbar_extension/accel	/jointset/patellofemoral_r/patellar_flexion_r/accel	/jointset/knee_r/knee_flexion_r/accel	/jointset/knee_r/knee_adduction_r/accel	/jointset/knee_r/knee_rotation_r/accel	/jointset/ankle_r/ankle_angle_r/accel	/jointset/subtalar_r/subtalar_angle_r/accel	gamma_cid13_p0	gamma_cid14_p0	gamma_cid14_p1	gamma_cid14_p2	gamma_cid14_p3	gamma_cid14_p4	gamma_cid14_p5
0	-0.013662798812105	0.1352290606233466	0.9321183371989836	0.1934211968871041	-0.2417974588133802	-0.2328354789202404	-0.2903787966825928	0.2311786273363426	0.2311786273363406	0.1627336194796649	0.1729709990378101	0.089344008118978	0.04688928880313065	0	0	0	0	0	0	0	0	0	0	0	0	0	0.1108932033165614	-0.06296893922274936	0.006530130952043439	-0.2593156097225432	0.1415488404821108	-0.1292726591031594	-0.03038743906320038	-30.02416110190012	-2.574903904124036	-51.28570225005153	2.534966860902149	-3.274168288803752	-611.4243681564227	25.76687882600115	-2.06194988687885	-1.791570526653486	-0.8231729792320431	10.07922498680369	0.1649688655388183	2.527046875819049	-6.2608654286008	10.03608169695037	10.03608169695017	-2.856481911397119	0.2003736139861748	2.803518224815327	0.9419273181521388	8.358506945368959e-08	5.053811335608387e-08	-5.7199022009134e-07	3.222597625806453e-07	2.529703104443193e-08	1.745025230994768e-07	-4.388308340638685e-07
0.01	-0.01376028831583991	0.1351412338926938	0.9320783093627441	0.1939123626645994	-0.2417875043758254	-0.2327076221112387	-0.2906927331311972	0.2316712254418433	0.2316712254418441	0.1625897514629208	0.1729759697190205	0.08948293567763786	0.04693812416367846	-0.019458158461735	-0.01741182227722473	-0.00798892165497561	0.09774080391854006	0.001928577912468327	0.02539725645454875	-0.06232366312135774	0.09808388372754914	0.09808388372754766	-0.02852589825527913	0.001064443125509809	0.02773288802024666	0.009679729699803902	0.1085171188746141	-0.07981133132769	0.00677986328101735	-0.2596228456104645	0.1399696512383612	-0.1152328946722489	-0.02767418440442509	-30.02855263711276	-2.419448851358507	-44.9401783304282	1.271068587357573	-5.00794693947568	-612.9299395865243	39.11817048144505	-1.881787077344846	-1.692954440870119	-0.7842200191817084	9.547658119456527	0.1974280998102994	2.52001856403455	-6.148572763930586	9.629164387855745	9.629164387855688	-2.813548360226754	0.07009207684681085	2.750294626392819	0.9678421372166668	9.869019021667385e-08	4.335237393904099e-08	-6.455755935248151e-07	3.832976383529294e-07	4.316061220478472e-08	6.289641348727201e-08	-5.179600409354662e-07
0.02	-0.01405116705449717	0.1348838956667462	0.9319588986578443	0.1953661664862932	-0.2417601389900031	-0.232331002030937	-0.2916159974130214	0.2331315869200539	0.2331315869200529	0.1621680435480779	0.1729937073144981	0.08989761622365362	0.04708112608948874	-0.03867784698441906	-0.03390229905896894	-0.01587657373206604	0.1925276088401759	0.00348218965331635	0.04975265425956617	-0.1218655666438076	0.1935526745430396	0.1935526745430387	-0.05556797961589435	0.002553382851556035	0.05515059747103328	0.01883331305249324	0.10614103443263	-0.09665372343263301	0.007029595610015774	-0.2599300814984218	0.1383904619945963	-0.1011931302413458	-0.02496092974566487	-30.04142401148965	-2.184806404516978	-38.60426400674384	0.03551875831365613	-6.677626513475487	-613.1376552052685	52.15919224521544	-2.014255899068637	-1.60730142755739	-0.8029190636550068	9.488425187422845	0.08997563121475338	2.318675145912772	-5.704513508819216	9.513063114538641	9.513063114538854	-2.55971853246434	0.2852729340934629	2.740482510923314	0.8366980487292258	1.137953109796581e-07	3.616663452199812e-08	-7.191609669582902e-07	4.443355141252135e-07	6.102419336513751e-08	-4.870969612493278e-08	-5.970892478070638e-07
0.03	-0.01453286771949003	0.1344653434300245	0.9317608909434423	0.1977540798275186	-0.2417188774717147	-0.2317162373555719	-0.2931211541857405	0.2355335853154718	0.2355335853154728	0.1614830076914884	0.1730282670792377	0.09058376522481508	0.04731304036656907	-0.05756546863966193	-0.04974541278776246	-0.02372366933690734	0.2846191705365618	0.004751223955571916	0.07314684670388433	-0.1787826615150876	0.28638823704823	0.2863882370482291	-0.08124891285931519	0.004257835972333718	0.08191886607218478	0.02748652998455938	0.1000384906265712	-0.09559540468165253	0.007935819921130344	-0.2530360336305466	0.1285668758748267	-0.0972783733433219	-0.02005273377753196	-30.06235738903066	-5.14702162294055	-37.32530406642569	-0.2796870470188238	-5.168785588411965	-613.465357122604	53.64667895048876	-1.811484843836595	-1.563393743904731	-0.7754200300524335	9.004144384433502	0.1425146723357482	2.341868219038714	-5.627838518517708	9.099964874557458	9.099964874557362	-2.543807748525838	0.0980106358185221	2.620963344651661	0.8701212226541214	1.333266005965201e-07	3.878228914102474e-08	-8.214002773680618e-07	5.22372565118725e-07	7.354562168166139e-08	-1.124704751738398e-07	-6.929633768973272e-07
0.04	-0.01520053851005222	0.133890244576342	0.9314844492287609	0.2010498333304468	-0.2416654961418814	-0.2308691153706929	-0.2951839881156193	0.2388501717471535	0.238850171747153	0.1605468570967985	0.1730768672021301	0.09153278977397736	0.04762958435441183	-0.07587187209827728	-0.06521162245112623	-0.03156337378791327	0.37409564118043	0.005906151962022436	0.09622411616209728	-0.2334009980757799	0.3764702817953497	0.3764702817953485	-0.1057909272325285	0.005361454483055767	0.1077257070709606	0.03575925520497662	0.09393594682051642	-0.09453708593068381	0.008842044232222455	-0.2461419857626734	0.1187432897550503	-0.0933636164453133	-0.01514453780938824	-30.09016080153965	-8.036727789158519	-36.05401399581893	-0.570406038698823	-3.608001067970705	-612.6132002632736	54.85151973256391	-1.898012259743111	-1.531920614471446	-0.8014408328879303	8.965406976919308	0.06715437205374003	2.25529054869172	-5.24476184670168	8.962359562924528	8.962359562924625	-2.331934758422829	0.1651060120823413	2.548196990448177	0.760599706399447	1.529491514268641e-07	4.160003435873321e-08	-9.24230390602087e-07	6.00760114570406e-07	8.595690251686921e-08	-1.752447525616479e-07	-7.891827621158105e-07
0.05	-0.01604900933616579	0.1331626341310624	0.9311293729805669	0.2052278791875134	-0.2416012204646869	-0.2297949837091733	-0.2977810730839517	0.2430544597874526	0.2430544597874517	0.1593709550832884	0.1731356209494787	0.09273551030592955	0.048027025968473	-0.09373990394846109	-0.08021921063138913	-0.03946935733640033	0.4610637313786068	0.006930119160494003	0.118430313033009	-0.2856417139838878	0.463946604641321	0.4639466046413229	-0.1292017175964585	0.006390134000461394	0.1326930466386285	0.04367945642197103	0.08862465643166853	-0.08882099101509924	0.009461017222041325	-0.2420542802366515	0.1141689029778373	-0.09375909773540825	-0.01076879991079996	-30.12357628396159	-9.463014989644181	-36.52917696659402	-0.433345099628738	-3.23656719031385	-611.9916435802942	52.44243642434714	-1.718826734337299	-1.471472232136764	-0.7878348948627479	8.495049539966871	0.1171716902368257	2.177621815446377	-5.157584221809548	8.57412965365781	8.574129653658249	-2.317572597816864	0.07199426816211486	2.452218429586015	0.8002145259412305	1.391216420549407e-07	3.550370609004321e-08	-7.626228915949893e-07	6.335815542120987e-07	7.720213609972665e-08	-2.165448639997076e-07	-7.560479211817269e-07
0.06	-0.01707368609811727	0.1322876889415136	0.9306947053410808	0.2102621138463007	-0.2415272743562062	-0.2285039225671124	-0.3008893367631548	0.2481202832578513	0.2481202832578503	0.1579665608816266	0.1732047105613322	0.09418414743149135	0.0485021664340225	-0.1111130592658877	-0.094678571304968	-0.04748165204627262	0.5453334015247842	0.007840238218684943	0.1396100122701385	-0.335636740249763	0.5487773678162672	0.5487773678162723	-0.1514893648579378	0.007428627381563951	0.1569090257926933	0.05129902550263612	0.08331336604279876	-0.08310489609952067	0.01007999021189532	-0.237966574710649	0.1095945162006149	-0.0941545790255153	-0.006393062012222486	-30.16106625647199	-10.82486206199772	-37.014346758791	-0.2703699285905617	-2.816576490364985	-610.3127888367728	49.7659852576223	-1.799036953191647	-1.422275113134644	-0.8227030651649704	8.425722966519411	0.04438474399761273	2.049991021935248	-4.795623918255116	8.433247628719531	8.433247628719622	-2.107306137932667	0.1670687848217327	2.397924907727542	0.7004732791335855	1.238857090955535e-07	2.90320484113996e-08	-5.898811773356339e-07	6.644844208091603e-07	6.755616769301144e-08	-2.569408000293567e-07	-7.174665865149036e-07
